<?xml version="1.0" encoding="UTF-8"?>
<svg width="800px" height="600px" viewBox="0 0 800 600" version="1.1" xmlns="http://www.w3.org/2000/svg">
    <title>AI Pacman</title>
    <g stroke="none" stroke-width="1" fill="none" fill-rule="evenodd">
        <!-- Pacman AI Circuit Body -->
        <circle cx="350" cy="300" r="200" fill="#000000" />
        
        <!-- Circuit Lines -->
        <path d="M150,200 L250,200 L250,250 L300,250" stroke="#FFFFFF" stroke-width="6" />
        <path d="M150,300 L200,300 L200,350 L250,350" stroke="#FFFFFF" stroke-width="6" />
        <path d="M150,400 L230,400 L230,370" stroke="#FFFFFF" stroke-width="6" />
        <path d="M350,100 L350,150 L400,150 L400,200" stroke="#FFFFFF" stroke-width="6" />
        <path d="M450,150 L500,150 L500,200" stroke="#FFFFFF" stroke-width="6" />
        <path d="M450,400 L500,400 L500,350" stroke="#FFFFFF" stroke-width="6" />
        <path d="M350,500 L350,450 L400,450" stroke="#FFFFFF" stroke-width="6" />
        
        <!-- Circuit Nodes -->
        <circle cx="250" cy="200" r="8" fill="#FFFFFF" />
        <circle cx="250" cy="250" r="8" fill="#FFFFFF" />
        <circle cx="200" cy="300" r="8" fill="#FFFFFF" />
        <circle cx="200" cy="350" r="8" fill="#FFFFFF" />
        <circle cx="230" cy="400" r="8" fill="#FFFFFF" />
        <circle cx="230" cy="370" r="8" fill="#FFFFFF" />
        <circle cx="350" cy="150" r="8" fill="#FFFFFF" />
        <circle cx="400" cy="150" r="8" fill="#FFFFFF" />
        <circle cx="450" cy="150" r="8" fill="#FFFFFF" />
        <circle cx="500" cy="200" r="8" fill="#FFFFFF" />
        <circle cx="500" cy="350" r="8" fill="#FFFFFF" />
        <circle cx="450" cy="400" r="8" fill="#FFFFFF" />
        <circle cx="400" cy="450" r="8" fill="#FFFFFF" />
        <circle cx="350" cy="450" r="8" fill="#FFFFFF" />
        
        <!-- AI Text -->
        <text x="320" y="320" font-family="Arial" font-size="80" font-weight="bold" fill="#FFFFFF">AI</text>
        
        <!-- Pacman Mouth -->
        <path d="M350,300 L500,150 A200,200 0 0,1 500,450 Z" fill="#000000" />
        
        <!-- Person -->
        <g transform="translate(600, 300)">
            <!-- Head -->
            <circle cx="0" cy="-50" r="25" fill="#000000" />
            
            <!-- Body -->
            <path d="M0,-25 L0,50" stroke="#000000" stroke-width="10" />
            
            <!-- Arms -->
            <path d="M0,0 L-30,30" stroke="#000000" stroke-width="8" />
            <path d="M0,0 L30,-10" stroke="#000000" stroke-width="8" />
            
            <!-- Legs -->
            <path d="M0,50 L-20,90" stroke="#000000" stroke-width="10" />
            <path d="M0,50 L20,90" stroke="#000000" stroke-width="10" />
            
            <!-- Phone -->
            <rect x="15" y="-20" width="20" height="30" rx="2" fill="#000000" />
            
            <!-- Worried Expression -->
            <circle cx="-8" cy="-55" r="3" fill="#FFFFFF" />
            <circle cx="8" cy="-55" r="3" fill="#FFFFFF" />
            <path d="M-10,-45 C-5,-42 5,-42 10,-45" stroke="#FFFFFF" stroke-width="2" fill="none" />
            
            <!-- Phone Glow Lines -->
            <path d="M40,-5 L50,-10" stroke="#000000" stroke-width="2" />
            <path d="M40,0 L50,0" stroke="#000000" stroke-width="2" />
            <path d="M40,5 L50,10" stroke="#000000" stroke-width="2" />
        </g>
    </g>
</svg>
